Fly_normalized_Motion_pl08
version=1
nRows=20
nColumns=43
inDegrees=yes
endheader
time		pelvis_tilt		pelvis_list		pelvis_rotation		pelvis_tx		pelvis_ty		pelvis_tz		hip_flexion_r		hip_adduction_r		hip_rotation_r		knee_angle_r		ankle_angle_r		subtalar_angle_r		mtp_angle_r		hip_flexion_l		hip_adduction_l		hip_rotation_l		knee_angle_l		ankle_angle_l		subtalar_angle_l		mtp_angle_l		lumbar_extension		lumbar_bending		lumbar_rotation		neck_flexion		neck_lateral_bending		neck_rotation		arm_flex_r		arm_add_r		arm_rot_r		elbow_flex_r		pro_sup_r		wrist_flex_r		wrist_dev_r		hand_finger_flex_r		arm_flex_l		arm_add_l		arm_rot_l		elbow_flex_l		pro_sup_l		wrist_flex_l		wrist_dev_l		hand_finger_flex_l		
2.093333		3.035827		-3.693727		91.843659		-0.024439		1.355039		0.822008		33.210476		-4.136172		-12.177631		-32.153843		-23.327467		-0.747827		23.213171		30.195782		-7.841754		-11.474212		-28.996394		-21.362325		5.716101		12.483279		-23.407937		2.443618		-0.910953		-18.946897		0.194051		0.588984		-51.599101		-37.353802		-28.873036		82.931251		116.633997		4.365440		-9.006518		-31.245466		-66.246770		-38.919984		-36.337752		98.295993		125.215957		-12.516748		-3.387914		-3.707650		
2.097247		2.864746		-3.541087		91.888843		-0.024624		1.344439		0.812649		32.459279		-4.276565		-12.304788		-30.716902		-23.541016		-0.588345		23.067597		29.324644		-7.582714		-11.615004		-27.151598		-21.431854		5.715893		12.429175		-22.851853		2.243629		-0.925472		-20.056553		0.313931		0.602150		-55.036805		-36.475425		-30.211485		83.023921		116.742593		4.028911		-9.345199		-31.301536		-69.563162		-38.088475		-37.292996		98.517634		125.735779		-12.773480		-3.763375		-3.720287		
2.101162		2.707908		-3.365243		91.931290		-0.024764		1.333774		0.803260		31.666522		-4.395736		-12.461991		-29.273634		-23.714607		-0.445776		22.910629		28.449746		-7.350013		-11.727021		-25.353889		-21.565856		5.647171		12.413898		-22.345478		2.056094		-0.891914		-21.090743		0.428737		0.581391		-58.342857		-35.459240		-31.463307		83.037686		116.781776		3.630606		-9.644973		-31.384317		-72.650960		-37.215602		-38.140572		98.649815		126.258435		-12.962301		-4.118590		-3.780094		
2.105076		2.573464		-3.164687		91.978926		-0.024883		1.323047		0.793870		30.844932		-4.486583		-12.658263		-27.848823		-23.842418		-0.332408		22.729736		27.574012		-7.142531		-11.818505		-23.600983		-21.744684		5.507448		12.443087		-21.889053		1.898597		-0.838238		-22.092020		0.538187		0.528166		-61.502380		-34.361286		-32.628764		82.996660		116.741524		3.216522		-9.881956		-31.479148		-75.526176		-36.263969		-38.933124		98.704908		126.754400		-13.042307		-4.460302		-3.871540		
2.108990		2.491697		-2.982625		92.039795		-0.024947		1.312105		0.784518		30.069585		-4.528561		-12.881401		-26.499005		-23.922787		-0.264092		22.530318		26.761346		-6.998015		-11.880912		-21.929105		-21.933944		5.304172		12.515194		-21.449307		1.802453		-0.806855		-23.004765		0.648766		0.452527		-64.448640		-33.218134		-33.674167		82.916069		116.629341		2.892710		-10.015215		-31.555123		-78.164730		-35.123188		-39.700648		98.678030		127.146671		-12.985606		-4.751323		-3.983227		
2.112904		2.418195		-2.759716		92.124478		-0.024945		1.301168		0.775148		29.203510		-4.542431		-13.179824		-25.083246		-23.910266		-0.223774		22.233936		25.890447		-6.855831		-11.938677		-20.226896		-22.144958		5.003317		12.684846		-21.072689		1.717262		-0.801204		-23.873101		0.821338		0.319178		-67.183638		-32.032532		-34.622216		82.778645		116.491163		2.728303		-10.086676		-31.552496		-80.518860		-33.909753		-40.458189		98.554436		127.602702		-12.628362		-5.062882		-4.184030		
2.116818		2.431692		-2.687143		92.213629		-0.024921		1.289646		0.766098		28.673110		-4.493554		-13.400335		-23.964113		-23.950811		-0.262531		22.045542		25.310691		-6.819126		-11.958386		-18.751419		-22.261571		4.777197		12.771954		-20.573940		1.712770		-0.847615		-24.642892		0.994971		0.231020		-69.702064		-30.868378		-35.533509		82.635636		116.432748		2.685255		-10.091690		-31.532075		-82.750813		-32.479097		-41.176423		98.488082		127.758520		-12.458302		-5.186524		-4.329687		
2.120732		2.428982		-2.724671		92.290813		-0.024824		1.277823		0.757249		28.251298		-4.433059		-13.533594		-22.805282		-23.972030		-0.305039		21.923630		24.894417		-6.778473		-11.956966		-17.365070		-22.278825		4.601852		12.813326		-20.020032		1.675252		-0.919080		-25.028557		1.157093		0.135380		-71.994822		-29.702131		-36.318836		82.438785		116.409706		2.660106		-10.073775		-31.516131		-84.710309		-30.987357		-41.768337		98.328383		127.806672		-12.369522		-5.201869		-4.413428		
2.124646		2.438066		-2.635141		92.389952		-0.024706		1.266203		0.748176		27.729170		-4.385913		-13.815518		-21.784183		-24.018508		-0.497752		21.763355		24.309940		-6.739698		-11.933669		-15.953918		-22.412438		4.252867		12.862002		-19.500488		1.638365		-0.986995		-26.140910		1.401550		0.011566		-74.079131		-28.514178		-37.112724		82.181756		116.526028		2.901128		-10.055926		-31.337520		-86.513458		-29.631426		-42.380366		98.111150		127.796330		-11.957501		-5.200713		-4.478947		
2.128561		2.410830		-2.595497		92.475111		-0.024713		1.254350		0.739387		27.294903		-4.371114		-13.957943		-20.784028		-24.107356		-0.637718		21.634991		23.855185		-6.669776		-11.876911		-14.709335		-22.469910		3.974170		12.911563		-19.007909		1.573038		-1.066957		-26.742428		1.507785		-0.056602		-75.969059		-27.352570		-37.836980		81.891725		116.720819		3.119621		-10.035926		-31.154936		-88.031732		-28.213740		-42.907797		97.903618		127.645352		-11.547892		-5.103696		-4.550944		
2.132475		2.392772		-2.304256		92.633410		-0.024780		1.242922		0.730452		26.564361		-4.367595		-14.185988		-19.821078		-24.145861		-0.722131		20.788576		23.132537		-6.585982		-11.744976		-13.492388		-22.658004		3.508868		14.112879		-18.769029		1.555431		-1.143194		-27.484131		1.510957		-0.215049		-77.581770		-25.912599		-38.951043		81.602220		118.823555		3.720294		-10.408669		-29.929392		-89.393212		-26.964309		-43.682127		97.898415		126.598969		-8.335452		-4.789483		-8.420957		
2.136389		2.314357		-2.255118		92.620662		-0.024838		1.230926		0.721792		26.264918		-4.408428		-14.243371		-19.104839		-24.303334		-0.871015		20.726720		22.731626		-6.500112		-11.702522		-12.486359		-22.692976		3.308680		14.158460		-18.297213		1.433924		-1.206434		-28.089571		1.488799		-0.204716		-79.139106		-24.880550		-39.476693		81.296716		118.758292		3.746042		-10.367247		-29.839364		-90.430265		-25.611985		-44.005249		97.521119		126.372006		-8.054766		-4.661403		-8.461673		
2.140303		2.199617		-2.054673		92.653989		-0.025085		1.219240		0.713024		25.787760		-4.497553		-14.274058		-18.417747		-24.526671		-1.121761		20.659020		22.151467		-6.343481		-11.686194		-11.486476		-22.838708		2.909360		14.304402		-17.967911		1.334320		-1.305370		-28.937890		1.321730		-0.160785		-80.528898		-23.835281		-40.071450		80.967996		118.892560		3.995034		-10.346520		-29.492548		-91.224927		-24.403056		-44.277380		97.110138		125.810562		-7.378438		-4.533081		-8.559538		
2.144217		2.127709		-1.957349		92.692897		-0.025197		1.207118		0.704767		25.537251		-4.567424		-14.250778		-17.932391		-24.583730		-1.192247		20.631412		21.890218		-6.279089		-11.611960		-10.869630		-22.756259		2.801540		14.370952		-17.644408		1.243408		-1.366547		-29.146812		1.300818		-0.168698		-81.652876		-22.771200		-40.536036		80.576404		118.954824		3.976167		-10.305896		-29.417412		-91.844652		-23.228347		-44.452837		96.685776		125.632997		-7.302003		-4.432577		-8.650275		
2.148131		2.010286		-1.491393		92.767659		-0.025636		1.195742		0.696332		24.849666		-4.689328		-14.331134		-17.439698		-24.805297		-1.527419		20.537296		21.165889		-6.124023		-11.448552		-10.150037		-23.090294		2.195027		15.058959		-17.721648		1.248079		-1.500406		-29.656509		0.883188		-0.233774		-82.567756		-21.675696		-41.379098		80.201599		119.885194		4.414824		-10.583740		-28.488104		-92.110724		-22.296873		-44.450709		95.990006		124.719042		-6.593143		-4.565893		-9.463814		
2.152045		1.902921		-1.379657		92.827949		-0.025882		1.183588		0.688327		24.681325		-4.830696		-14.278811		-17.202241		-24.817879		-1.604921		20.516311		21.014612		-6.030181		-11.314260		-9.826520		-22.948544		2.161476		15.182235		-17.457853		1.160168		-1.564482		-30.001091		0.886209		-0.195347		-83.283671		-20.724489		-41.708083		79.631623		119.905521		4.303456		-10.510010		-28.466716		-92.264436		-21.313879		-44.498984		95.438361		124.677896		-6.640497		-4.458501		-9.619380		
2.155960		1.772288		-1.222393		92.902141		-0.026140		1.171506		0.680419		24.502261		-4.999945		-14.225162		-17.070533		-24.844234		-1.764174		20.491535		20.873838		-5.917435		-11.150545		-9.653135		-22.903813		2.049937		15.339596		-17.274177		1.064468		-1.690450		-30.394043		0.799623		-0.153790		-83.767877		-19.865855		-42.027382		79.001839		119.937390		4.211014		-10.485725		-28.430728		-92.212238		-20.423188		-44.440057		94.784149		124.641529		-6.735691		-4.420729		-9.807243		
2.159874		1.636977		-1.042195		93.000072		-0.026420		1.159401		0.672701		24.343707		-5.185391		-14.151631		-17.036891		-24.872689		-1.968082		20.472633		20.786755		-5.796706		-10.951093		-9.648451		-22.906855		1.883169		15.535792		-17.155159		0.965805		-1.849763		-30.725565		0.694280		-0.122577		-84.050079		-19.092368		-42.303588		78.321485		119.972173		4.098390		-10.482319		-28.413508		-91.990064		-19.593704		-44.337667		94.079863		124.609526		-6.905990		-4.444657		-10.032917		
2.163788		1.509013		-0.850622		93.116984		-0.026751		1.147203		0.665234		24.227968		-5.380957		-14.045367		-17.119707		-24.884265		-2.180633		20.472281		20.784838		-5.679842		-10.739023		-9.850907		-22.914621		1.701028		15.748324		-17.097674		0.874613		-2.015993		-30.971042		0.633292		-0.099453		-84.126737		-18.424207		-42.497215		77.591548		119.992946		3.941739		-10.463136		-28.445568		-91.598145		-18.830946		-44.206109		93.368322		124.569002		-7.121763		-4.497983		-10.261988		
2.167702		1.305058		-0.734007		93.413155		-0.027350		1.134690		0.658024		24.221772		-5.710938		-13.842465		-17.302431		-24.895630		-2.782624		20.549347		20.985421		-5.394398		-10.067618		-10.259591		-22.959187		1.080478		16.583712		-17.023871		0.747951		-2.468731		-30.946363		0.471498		0.017319		-84.054835		-17.931478		-42.546199		76.758940		120.051748		3.370627		-10.901717		-28.632117		-91.144112		-18.101048		-43.909656		92.410751		124.404826		-7.882814		-5.192711		-10.965811		
